<svg width="19" height="23" viewBox="0 0 19 23" fill="none" xmlns="http://www.w3.org/2000/svg">
<path d="M9.49412 23C10.5529 23 11.2706 22.2441 11.2706 21.1283V8.0626L11.1529 5.45905L13.3647 8.0746L16.0471 10.8101C16.3765 11.1341 16.7882 11.374 17.3176 11.374C18.2706 11.374 19 10.6661 19 9.63432C19 9.16641 18.8118 8.72248 18.4471 8.33855L10.8 0.539906C10.4706 0.203965 9.97647 0 9.49412 0C9.01176 0 8.51765 0.203965 8.18824 0.539906L0.552941 8.33855C0.188235 8.72248 0 9.16641 0 9.63432C0 10.6661 0.729412 11.374 1.68235 11.374C2.21176 11.374 2.62353 11.1341 2.94118 10.8101L5.62353 8.0746L7.83529 5.45905L7.72941 8.0626V21.1283C7.72941 22.2441 8.43529 23 9.49412 23Z" fill="#87CD44"/>
</svg>
