<svg width="10" height="8" viewBox="0 0 10 8" fill="none" xmlns="http://www.w3.org/2000/svg">
<path fill-rule="evenodd" clip-rule="evenodd" d="M8.69211 8C9.12379 8 9.44969 7.88846 9.66981 7.66538C9.88994 7.4423 10 7.11209 10 6.67474V2.3071C10 1.86975 9.88994 1.53953 9.66981 1.31646C9.44969 1.09338 9.12379 0.981838 8.69211 0.981838H7.56003C7.45426 0.981838 7.3685 0.973766 7.30274 0.957622C7.23699 0.941479 7.17767 0.913594 7.12479 0.873968C7.0719 0.834342 7.01401 0.780774 6.95112 0.713264L6.6295 0.347826C6.52659 0.233352 6.41366 0.146762 6.29074 0.0880572C6.16781 0.0293524 6.002 0 5.79331 0H4.18096C3.97227 0 3.80718 0.0293524 3.68568 0.0880572C3.56418 0.146762 3.45197 0.233352 3.34906 0.347826L3.02316 0.713264C2.92882 0.815997 2.84377 0.886443 2.76801 0.924601C2.69225 0.962759 2.57576 0.981838 2.41852 0.981838H1.30789C0.876215 0.981838 0.550314 1.09338 0.330189 1.31646C0.110063 1.53953 0 1.86975 0 2.3071V6.67474C0 7.11209 0.110063 7.4423 0.330189 7.66538C0.550314 7.88846 0.876215 8 1.30789 8H8.69211ZM8.6578 7.24711H1.33791C1.14637 7.24711 0.998428 7.19428 0.894082 7.08861C0.789737 6.98294 0.737564 6.8259 0.737564 6.6175V2.36434C0.737564 2.15593 0.789737 1.99963 0.894082 1.89543C0.998428 1.79123 1.14637 1.73913 1.33791 1.73913H2.61578C2.79874 1.73913 2.94597 1.71785 3.05746 1.67529C3.16895 1.63273 3.27616 1.55421 3.37907 1.43974L3.69211 1.0831C3.80646 0.953953 3.90866 0.867364 3.99871 0.823335C4.08877 0.779307 4.22098 0.757292 4.39537 0.757292H5.5789C5.75615 0.757292 5.88908 0.779307 5.9777 0.823335C6.06632 0.867364 6.16781 0.952486 6.28216 1.0787L6.59949 1.43974C6.69954 1.55421 6.80532 1.63273 6.91681 1.67529C7.0283 1.71785 7.17553 1.73913 7.35849 1.73913H8.6578C8.8522 1.73913 9.00157 1.79123 9.10592 1.89543C9.21026 1.99963 9.26244 2.15593 9.26244 2.36434V6.6175C9.26244 6.8259 9.21026 6.98294 9.10592 7.08861C9.00157 7.19428 8.8522 7.24711 8.6578 7.24711ZM6.10849 6.36874C5.77544 6.57274 5.40595 6.67474 5 6.67474C4.59405 6.67474 4.22456 6.57274 3.89151 6.36874C3.55846 6.16474 3.29331 5.8925 3.09606 5.55201C2.8988 5.21152 2.80017 4.83141 2.80017 4.41167C2.80017 3.99193 2.8988 3.61035 3.09606 3.26692C3.29331 2.9235 3.55846 2.65052 3.89151 2.44799C4.22456 2.24546 4.59405 2.14419 5 2.14419C5.40595 2.14419 5.77544 2.24546 6.10849 2.44799C6.44154 2.65052 6.70669 2.9235 6.90394 3.26692C7.1012 3.61035 7.19983 3.99193 7.19983 4.41167C7.19983 4.83141 7.1012 5.21152 6.90394 5.55201C6.70669 5.8925 6.44154 6.16474 6.10849 6.36874ZM7.87307 3.42983C8.01029 3.42689 8.12965 3.37406 8.23113 3.27133C8.33262 3.16859 8.38336 3.04385 8.38336 2.89708C8.38336 2.75619 8.33262 2.63291 8.23113 2.52724C8.12965 2.42157 8.01029 2.36874 7.87307 2.36874C7.73299 2.36874 7.61078 2.42157 7.50643 2.52724C7.40209 2.63291 7.34991 2.75619 7.34991 2.89708C7.34991 3.04678 7.40137 3.173 7.50429 3.27573C7.6072 3.37846 7.73013 3.42983 7.87307 3.42983ZM4.23456 5.76335C4.46469 5.90424 4.71984 5.97468 5 5.97468C5.28016 5.97468 5.53531 5.90424 5.76544 5.76335C5.99557 5.62245 6.17924 5.43387 6.31647 5.19758C6.45369 4.96129 6.5223 4.69932 6.5223 4.41167C6.5223 4.12108 6.45369 3.85691 6.31647 3.61915C6.17924 3.3814 5.99557 3.19281 5.76544 3.05338C5.53531 2.91396 5.28016 2.84425 5 2.84425C4.71984 2.84425 4.46398 2.91396 4.23242 3.05338C4.00086 3.19281 3.81718 3.3814 3.68139 3.61915C3.5456 3.85691 3.4777 4.12108 3.4777 4.41167C3.4777 4.69932 3.54631 4.96129 3.68353 5.19758C3.82075 5.43387 4.00443 5.62245 4.23456 5.76335Z" fill="#252525"/>
</svg>
