<svg width="15" height="15" viewBox="0 0 15 15" fill="none" xmlns="http://www.w3.org/2000/svg">
<path fill-rule="evenodd" clip-rule="evenodd" d="M12.3596 15C14.1011 15 15 14.1011 15 12.3836V2.61637C15 0.898876 14.1011 0 12.3596 0H2.64045C0.906902 0 0 0.890851 0 2.61637V12.3836C0 14.1011 0.906902 15 2.64045 15H12.3596ZM12.2552 13.4029H2.74478C2.00642 13.4029 1.59711 13.0177 1.59711 12.2392V2.76083C1.59711 1.98234 2.00642 1.59711 2.74478 1.59711H12.2552C12.9856 1.59711 13.4029 1.98234 13.4029 2.76083V12.2392C13.4029 13.0177 12.9856 13.4029 12.2552 13.4029ZM7.35955 10.8989C7.18299 11.1557 6.93419 11.3002 6.64526 11.3002C6.34831 11.3002 6.11557 11.1717 5.89888 10.8989L4.00482 8.59551C3.86838 8.42697 3.79615 8.24238 3.79615 8.04976C3.79615 7.6565 4.10915 7.33547 4.50241 7.33547C4.74318 7.33547 4.93579 7.42376 5.12841 7.67255L6.62119 9.55859L9.81541 4.45425C9.98395 4.18941 10.2006 4.04494 10.4414 4.04494C10.8266 4.04494 11.1798 4.31782 11.1798 4.7191C11.1798 4.90369 11.0835 5.09631 10.9791 5.26485L7.35955 10.8989Z" fill="#328EFF"/>
</svg>
