<svg width="26" height="25" viewBox="0 0 26 25" fill="none" xmlns="http://www.w3.org/2000/svg">
<path fill-rule="evenodd" clip-rule="evenodd" d="M10.9725 0.0771153C14.5686 -0.445058 18.0069 1.7312 19.0551 5.19301C21.3013 5.13761 23.4065 6.27854 24.5778 8.18601C25.7491 10.0935 25.8085 12.4777 24.7337 14.4406C23.6588 16.4035 21.613 17.6468 19.3668 17.7022H17.2711C16.6924 17.7022 16.2233 17.2355 16.2233 16.6597C16.2233 16.084 16.6924 15.6173 17.2711 15.6173H19.3668C21.6817 15.6173 23.5582 13.7505 23.5582 11.4476C23.5582 9.14471 21.6817 7.27787 19.3668 7.27787C19.0649 7.27637 18.7637 7.30695 18.4683 7.36908C18.1848 7.43067 17.8883 7.37255 17.6495 7.20856C17.4107 7.04458 17.2509 6.78941 17.2083 6.50386C16.9992 4.59072 15.7475 2.94784 13.9524 2.23059C12.1574 1.51333 10.1111 1.83842 8.62993 3.07618C7.14872 4.31393 6.47359 6.26292 6.87387 8.14569C6.9255 8.45087 6.83816 8.7631 6.63548 8.99788C6.4267 9.22536 6.13299 9.35732 5.8234 9.36273H5.69504C3.9589 9.3764 2.56263 10.7876 2.57638 12.5148C2.59012 14.2419 4.00868 15.631 5.74481 15.6173H8.88835C9.46706 15.6173 9.9362 16.084 9.9362 16.6597C9.9362 17.2355 9.46706 17.7022 8.88835 17.7022H5.74481C3.05313 17.7049 0.797335 15.678 0.526825 13.0138C0.256315 10.3496 2.05911 7.91497 4.69696 7.38211V7.27787C4.7068 3.66243 7.37636 0.599289 10.9725 0.0771153ZM12.0319 12.49C12.0319 11.9143 12.501 11.4476 13.0797 11.4476C13.6585 11.4476 14.1276 11.9143 14.1276 12.49V21.4393L15.4819 20.0919C15.8914 19.6846 16.5552 19.6846 16.9646 20.0919C17.3741 20.4993 17.3741 21.1597 16.9646 21.567L13.8211 24.6943C13.6246 24.89 13.3579 25 13.0797 25C12.8016 25 12.5349 24.89 12.3384 24.6943L9.19485 21.567C8.78541 21.1597 8.78541 20.4993 9.19485 20.0919C9.60429 19.6846 10.2681 19.6846 10.6776 20.0919L12.0319 21.4393V12.49Z" fill="#328EFF"/>
</svg>
