<svg width="17" height="15" viewBox="0 0 17 15" fill="none" xmlns="http://www.w3.org/2000/svg">
<mask id="path-1-inside-1" fill="white">
<path fill-rule="evenodd" clip-rule="evenodd" d="M5.68323 1.45161H2.32258C1.84156 1.45161 1.45161 1.84156 1.45161 2.32258V5.51613C1.45161 5.99715 1.84156 6.3871 2.32258 6.3871H5.68323C6.16426 6.3871 6.5542 5.99715 6.5542 5.51613V2.32258C6.5542 1.84156 6.16426 1.45161 5.68323 1.45161ZM2.32258 0C1.03985 0 0 1.03985 0 2.32258V5.51613C0 6.79886 1.03985 7.83871 2.32258 7.83871H5.68323C6.96596 7.83871 8.00581 6.79886 8.00581 5.51613V2.32258C8.00581 1.03985 6.96596 0 5.68323 0H2.32258ZM6.1671 10.2581H1.83871C1.62492 10.2581 1.45161 10.4314 1.45161 10.6452V13.1613C1.45161 13.3751 1.62492 13.5484 1.83871 13.5484H6.1671C6.38089 13.5484 6.5542 13.3751 6.5542 13.1613V10.6452C6.5542 10.4314 6.38089 10.2581 6.1671 10.2581ZM1.83871 8.80645C0.823218 8.80645 0 9.62967 0 10.6452V13.1613C0 14.1768 0.823219 15 1.83871 15H6.1671C7.1826 15 8.00581 14.1768 8.00581 13.1613V10.6452C8.00581 9.62967 7.18259 8.80645 6.1671 8.80645H1.83871ZM11.3168 1.45161H14.6774C15.1584 1.45161 15.5484 1.84156 15.5484 2.32258V12.6774C15.5484 13.1584 15.1584 13.5484 14.6774 13.5484H11.3168C10.8357 13.5484 10.4458 13.1584 10.4458 12.6774V2.32258C10.4458 1.84156 10.8357 1.45161 11.3168 1.45161ZM8.99419 2.32258C8.99419 1.03985 10.034 0 11.3168 0H14.6774C15.9601 0 17 1.03985 17 2.32258V12.6774C17 13.9601 15.9601 15 14.6774 15H11.3168C10.034 15 8.99419 13.9601 8.99419 12.6774V2.32258Z"/>
</mask>
<path d="M2.32258 2.90323H5.68323V0H2.32258V2.90323ZM2.90323 2.32258C2.90323 2.64326 2.64326 2.90323 2.32258 2.90323V0C1.03985 0 0 1.03985 0 2.32258H2.90323ZM2.90323 5.51613V2.32258H0V5.51613H2.90323ZM2.32258 4.93548C2.64326 4.93548 2.90323 5.19545 2.90323 5.51613H0C0 6.79885 1.03985 7.83871 2.32258 7.83871V4.93548ZM5.68323 4.93548H2.32258V7.83871H5.68323V4.93548ZM5.10259 5.51613C5.10259 5.19545 5.36255 4.93548 5.68323 4.93548V7.83871C6.96596 7.83871 8.00581 6.79886 8.00581 5.51613H5.10259ZM5.10259 2.32258V5.51613H8.00581V2.32258H5.10259ZM5.68323 2.90323C5.36255 2.90323 5.10259 2.64326 5.10259 2.32258H8.00581C8.00581 1.03985 6.96596 0 5.68323 0V2.90323ZM1.45161 2.32258C1.45161 1.84156 1.84156 1.45161 2.32258 1.45161V-1.45161C0.238152 -1.45161 -1.45161 0.238148 -1.45161 2.32258H1.45161ZM1.45161 5.51613V2.32258H-1.45161V5.51613H1.45161ZM2.32258 6.3871C1.84156 6.3871 1.45161 5.99715 1.45161 5.51613H-1.45161C-1.45161 7.60056 0.238151 9.29032 2.32258 9.29032V6.3871ZM5.68323 6.3871H2.32258V9.29032H5.68323V6.3871ZM6.5542 5.51613C6.5542 5.99715 6.16426 6.3871 5.68323 6.3871V9.29032C7.76766 9.29032 9.45743 7.60056 9.45743 5.51613H6.5542ZM6.5542 2.32258V5.51613H9.45743V2.32258H6.5542ZM5.68323 1.45161C6.16426 1.45161 6.5542 1.84156 6.5542 2.32258H9.45743C9.45743 0.238151 7.76766 -1.45161 5.68323 -1.45161V1.45161ZM2.32258 1.45161H5.68323V-1.45161H2.32258V1.45161ZM1.83871 11.7097H6.1671V8.80645H1.83871V11.7097ZM2.90323 10.6452C2.90323 11.2331 2.42663 11.7097 1.83871 11.7097V8.80645C0.823218 8.80645 0 9.62967 0 10.6452H2.90323ZM2.90323 13.1613V10.6452H0V13.1613H2.90323ZM1.83871 12.0968C2.42663 12.0968 2.90323 12.5734 2.90323 13.1613H0C0 14.1768 0.823217 15 1.83871 15V12.0968ZM6.1671 12.0968H1.83871V15H6.1671V12.0968ZM5.10259 13.1613C5.10259 12.5734 5.57919 12.0968 6.1671 12.0968V15C7.18259 15 8.00581 14.1768 8.00581 13.1613H5.10259ZM5.10259 10.6452V13.1613H8.00581V10.6452H5.10259ZM6.1671 11.7097C5.57919 11.7097 5.10259 11.2331 5.10259 10.6452H8.00581C8.00581 9.62967 7.1826 8.80645 6.1671 8.80645V11.7097ZM1.45161 10.6452C1.45161 10.4314 1.62492 10.2581 1.83871 10.2581V7.35484C0.0215126 7.35484 -1.45161 8.82797 -1.45161 10.6452H1.45161ZM1.45161 13.1613V10.6452H-1.45161V13.1613H1.45161ZM1.83871 13.5484C1.62492 13.5484 1.45161 13.3751 1.45161 13.1613H-1.45161C-1.45161 14.9785 0.0215151 16.4516 1.83871 16.4516V13.5484ZM6.1671 13.5484H1.83871V16.4516H6.1671V13.5484ZM6.5542 13.1613C6.5542 13.3751 6.38089 13.5484 6.1671 13.5484V16.4516C7.9843 16.4516 9.45743 14.9785 9.45743 13.1613H6.5542ZM6.5542 10.6452V13.1613H9.45743V10.6452H6.5542ZM6.1671 10.2581C6.38089 10.2581 6.5542 10.4314 6.5542 10.6452H9.45743C9.45743 8.82797 7.9843 7.35484 6.1671 7.35484V10.2581ZM1.83871 10.2581H6.1671V7.35484H1.83871V10.2581ZM14.6774 0H11.3168V2.90323H14.6774V0ZM17 2.32258C17 1.03985 15.9601 0 14.6774 0V2.90323C14.3567 2.90323 14.0968 2.64326 14.0968 2.32258H17ZM17 12.6774V2.32258H14.0968V12.6774H17ZM14.6774 15C15.9601 15 17 13.9601 17 12.6774H14.0968C14.0968 12.3567 14.3567 12.0968 14.6774 12.0968V15ZM11.3168 15H14.6774V12.0968H11.3168V15ZM8.99419 12.6774C8.99419 13.9601 10.034 15 11.3168 15V12.0968C11.6374 12.0968 11.8974 12.3567 11.8974 12.6774H8.99419ZM8.99419 2.32258V12.6774H11.8974V2.32258H8.99419ZM11.3168 0C10.034 0 8.99419 1.03985 8.99419 2.32258H11.8974C11.8974 2.64326 11.6374 2.90323 11.3168 2.90323V0ZM11.3168 -1.45161C9.23234 -1.45161 7.54257 0.23815 7.54257 2.32258H10.4458C10.4458 1.84156 10.8357 1.45161 11.3168 1.45161V-1.45161ZM14.6774 -1.45161H11.3168V1.45161H14.6774V-1.45161ZM18.4516 2.32258C18.4516 0.238152 16.7619 -1.45161 14.6774 -1.45161V1.45161C15.1584 1.45161 15.5484 1.84156 15.5484 2.32258H18.4516ZM18.4516 12.6774V2.32258H15.5484V12.6774H18.4516ZM14.6774 16.4516C16.7618 16.4516 18.4516 14.7619 18.4516 12.6774H15.5484C15.5484 13.1584 15.1584 13.5484 14.6774 13.5484V16.4516ZM11.3168 16.4516H14.6774V13.5484H11.3168V16.4516ZM7.54257 12.6774C7.54257 14.7618 9.23234 16.4516 11.3168 16.4516V13.5484C10.8357 13.5484 10.4458 13.1584 10.4458 12.6774H7.54257ZM7.54257 2.32258V12.6774H10.4458V2.32258H7.54257Z" fill="#252525" mask="url(#path-1-inside-1)"/>
</svg>
