<svg width="8" height="10" viewBox="0 0 8 10" fill="none" xmlns="http://www.w3.org/2000/svg">
<path d="M3.99725 10C4.07066 10 4.14132 9.98513 4.20922 9.95538C4.27713 9.92564 4.33861 9.88102 4.39367 9.82153L7.83482 6.33017C7.94494 6.21491 8 6.08663 8 5.94534C8 5.79662 7.95136 5.67299 7.85409 5.57446C7.75682 5.47592 7.63661 5.42666 7.49346 5.42666C7.42005 5.42666 7.35123 5.43967 7.28699 5.4657C7.22276 5.49173 7.16678 5.52891 7.11906 5.57724L5.9298 6.75962L4.48425 8.38222L4.52581 7.25042V0.535416C4.52581 0.375535 4.47626 0.246328 4.37715 0.147797C4.27805 0.0492657 4.15141 0 3.99725 0C3.84308 0 3.71737 0.0492657 3.6201 0.147797C3.52283 0.246328 3.47419 0.375535 3.47419 0.535416V7.25042L3.51532 8.39364L2.06469 6.75962L0.880936 5.57724C0.833219 5.52891 0.777242 5.49173 0.713008 5.4657C0.648773 5.43967 0.57995 5.42666 0.506538 5.42666C0.359716 5.42666 0.238587 5.47592 0.143152 5.57446C0.0477174 5.67299 0 5.79662 0 5.94534C0 6.08663 0.0550585 6.21491 0.165175 6.33017L3.60633 9.82153C3.66139 9.88102 3.72287 9.92564 3.79078 9.95538C3.85868 9.98513 3.92751 10 3.99725 10Z" fill="#328EFF"/>
</svg>
