<svg width="12" height="15" viewBox="0 0 12 15" fill="none" xmlns="http://www.w3.org/2000/svg">
<path fill-rule="evenodd" clip-rule="evenodd" d="M1.41218 12.9545C1.41218 13.3311 1.72831 13.6364 2.11827 13.6364H6.3548C6.74477 13.6364 7.06089 13.9416 7.06089 14.3182C7.06089 14.6947 6.74477 15 6.3548 15H2.11827C0.948381 15 0 14.0842 0 12.9545V2.04545C0 0.915781 0.948381 0 2.11827 0H6.3548C6.74477 0 7.06089 0.30526 7.06089 0.681818C7.06089 1.05838 6.74477 1.36364 6.3548 1.36364H2.11827C1.72831 1.36364 1.41218 1.6689 1.41218 2.04545V12.9545ZM11.7988 7.01591C11.863 7.08075 11.9134 7.15722 11.947 7.24091C12.0177 7.40691 12.0177 7.59309 11.947 7.75909C11.9134 7.84278 11.863 7.91925 11.7988 7.98409L8.9744 10.7114C8.84182 10.8404 8.66134 10.913 8.47307 10.913C8.2848 10.913 8.10433 10.8404 7.97175 10.7114C7.83808 10.5833 7.76289 10.4091 7.76289 10.2273C7.76289 10.0455 7.83808 9.8712 7.97175 9.74318L9.59576 8.18182H4.94263C4.55266 8.18182 4.23654 7.87656 4.23654 7.5C4.23654 7.12344 4.55266 6.81818 4.94263 6.81818H9.59576L7.97175 5.25682C7.79264 5.08387 7.7227 4.83179 7.78825 4.59554C7.85381 4.35928 8.04491 4.17475 8.28958 4.11145C8.53424 4.04814 8.79529 4.11569 8.9744 4.28864L11.7988 7.01591Z" fill="#DA5D5D"/>
</svg>
