<svg width="21" height="14" viewBox="0 0 21 14" fill="none" xmlns="http://www.w3.org/2000/svg">
<path opacity="0.501374" fill-rule="evenodd" clip-rule="evenodd" d="M10.5039 14C16.7086 14 21 9.04471 21 7.5C21 5.94765 16.7008 1 10.5039 1C4.37661 1 0 5.94765 0 7.5C0 9.04471 4.37661 14 10.5039 14ZM10.5039 11.7594C8.08705 11.7594 6.17374 9.82471 6.16599 7.5C6.15824 5.11412 8.08705 3.24059 10.5039 3.24059C12.8975 3.24059 14.834 5.11412 14.834 7.5C14.834 9.82471 12.8975 11.7594 10.5039 11.7594ZM12.0764 7.5C12.0764 8.34118 11.3637 9.03706 10.5039 9.03706C9.6363 9.03706 8.92364 8.34118 8.92364 7.5C8.92364 6.65118 9.6363 5.95529 10.5039 5.95529C11.3637 5.95529 12.0764 6.65118 12.0764 7.5Z" fill="#252525"/>
</svg>
