<svg width="14" height="18" viewBox="0 0 14 18" fill="none" xmlns="http://www.w3.org/2000/svg">
<path fill-rule="evenodd" clip-rule="evenodd" d="M9.19306 0.133118L9.18872 0.128833C9.10685 0.0454956 8.99392 -0.000976497 8.87636 0.000294555C8.86176 -0.000407558 8.84714 0.00103642 8.83297 0.00457918H2.1692C0.971361 0.00500483 0.000430988 0.963902 0 2.14689V15.8577C0.000430988 17.0407 0.971361 17.9996 2.1692 18H11.8308C13.0286 17.9996 13.9996 17.0407 14 15.8577V5.05187C13.9992 4.93828 13.9541 4.82936 13.8742 4.74766L9.19306 0.133118ZM9.31019 1.46135L12.5293 4.63198H10.6117C9.89377 4.62991 9.31229 4.05563 9.31019 3.34659V1.46135ZM2.1692 17.1388H11.8351C12.1798 17.1384 12.5101 17.0027 12.7534 16.7616C12.9967 16.5205 13.133 16.1938 13.1323 15.8534V5.4889H10.6117C9.41388 5.48848 8.44295 4.52958 8.44252 3.34659V0.85722H2.1692C1.45126 0.859291 0.869776 1.43357 0.867679 2.14261V15.8534C0.869776 16.5625 1.45126 17.1367 2.1692 17.1388Z" fill="#328EFF"/>
</svg>
