<svg width="103" height="20" viewBox="0 0 103 20" fill="none" xmlns="http://www.w3.org/2000/svg">
<path fill-rule="evenodd" clip-rule="evenodd" d="M66.9155 4.085V1.565H64.0595V4.085H66.9155ZM56.3107 17.315C57.3327 17.315 58.2409 17.0543 59.0354 16.5328C59.8299 16.0113 60.4459 15.2955 60.8834 14.3855C61.3209 13.4755 61.5397 12.457 61.5397 11.33C61.5397 10.182 61.3174 9.153 60.8729 8.243C60.4284 7.333 59.7984 6.6225 58.9829 6.1115C58.1674 5.6005 57.2277 5.345 56.1637 5.345C55.1743 5.345 54.32 5.57498 53.601 6.03492L53.6017 1.88H50.7247V17H53.2447L53.244 16.34L53.2987 16.3831L53.5229 16.5433C54.2894 17.0578 55.2187 17.315 56.3107 17.315ZM31.468 17.315C32.784 17.315 33.89 16.9895 34.786 16.3385C35.682 15.6875 36.291 14.76 36.613 13.556L33.694 12.947C33.519 13.521 33.2582 13.948 32.9117 14.228C32.5652 14.508 32.084 14.648 31.468 14.648C30.908 14.648 30.432 14.5098 30.04 14.2333C29.648 13.9568 29.354 13.57 29.158 13.073C28.962 12.576 28.864 11.995 28.864 11.33C28.864 10.336 29.081 9.5345 29.515 8.9255C29.949 8.3165 30.6 8.012 31.468 8.012C32 8.012 32.4725 8.17825 32.8855 8.51075C33.2985 8.84325 33.589 9.3 33.757 9.881L36.613 9.125C36.445 8.355 36.1282 7.68475 35.6627 7.11425C35.1972 6.54375 34.6092 6.10625 33.8987 5.80175C33.1882 5.49725 32.392 5.345 31.51 5.345C30.376 5.345 29.3802 5.60225 28.5227 6.11675C27.6652 6.63125 27.0037 7.34175 26.5382 8.24825C26.0727 9.15475 25.84 10.182 25.84 11.33C25.84 12.471 26.0657 13.4948 26.5172 14.4012C26.9687 15.3077 27.6197 16.02 28.4702 16.538C29.3207 17.056 30.32 17.315 31.468 17.315ZM41.6528 17.315C42.3038 17.315 42.8761 17.2415 43.3696 17.0945C43.8631 16.9475 44.3093 16.7165 44.7083 16.4015C44.9743 16.1915 45.2357 15.9364 45.4923 15.6362L45.516 15.608L45.5168 17H48.0158V10.07C48.0158 9.447 47.9896 8.94125 47.9371 8.55275C47.8846 8.16425 47.7568 7.781 47.5538 7.403C47.1758 6.682 46.6071 6.15875 45.8476 5.83325C45.0881 5.50775 44.1798 5.345 43.1228 5.345C41.8068 5.345 40.7428 5.6285 39.9308 6.1955C39.1188 6.7625 38.5658 7.536 38.2718 8.516L40.8548 9.335C41.0158 8.859 41.3133 8.509 41.7473 8.285C42.1813 8.061 42.6398 7.949 43.1228 7.949C43.6268 7.949 44.0328 8.01725 44.3408 8.15375C44.6488 8.29025 44.8728 8.502 45.0128 8.789C45.1062 8.98033 45.1684 9.209 45.1995 9.475L45.201 9.493L44.8468 9.54513C43.805 9.70055 42.9717 9.83371 42.3469 9.94461L42.1463 9.98075C41.4393 10.1103 40.8408 10.266 40.3508 10.448C39.4688 10.77 38.8353 11.2145 38.4503 11.7815C38.0653 12.3485 37.8728 13.045 37.8728 13.871C37.8728 14.508 38.0216 15.089 38.3191 15.614C38.6166 16.139 39.0506 16.5538 39.6211 16.8583C40.1916 17.1628 40.8688 17.315 41.6528 17.315ZM41.4113 14.921C41.6493 15.019 41.9328 15.068 42.2618 15.068C42.7448 15.068 43.1683 14.9823 43.5323 14.8108C43.8963 14.6393 44.1886 14.438 44.4091 14.207C44.6296 13.976 44.7888 13.759 44.8868 13.556C45.0058 13.318 45.0846 13.0363 45.1231 12.7108L45.1552 12.3788C45.1637 12.2661 45.1701 12.1511 45.1744 12.0341L45.178 11.809L45.0338 11.834C44.1098 11.988 43.4238 12.114 42.9758 12.212C42.5278 12.31 42.1498 12.415 41.8418 12.527C41.4288 12.695 41.1296 12.8823 40.9441 13.0888C40.7586 13.2953 40.6658 13.542 40.6658 13.829C40.6658 14.088 40.7306 14.3103 40.8601 14.4958C40.9896 14.6813 41.1733 14.823 41.4113 14.921ZM54.3472 14.354C54.7322 14.634 55.2327 14.774 55.8487 14.774C56.4437 14.774 56.9407 14.6235 57.3397 14.3225C57.7387 14.0215 58.0344 13.612 58.2269 13.094C58.4194 12.576 58.5157 11.988 58.5157 11.33C58.5157 10.679 58.4142 10.0945 58.2112 9.5765C58.0082 9.0585 57.7002 8.64725 57.2872 8.34275C56.8742 8.03825 56.3597 7.886 55.7437 7.886C55.1627 7.886 54.6867 8.02775 54.3157 8.31125C53.9447 8.59475 53.6734 8.992 53.5019 9.503C53.3304 10.014 53.2447 10.623 53.2447 11.33C53.2447 12.044 53.3322 12.6565 53.5072 13.1675C53.6822 13.6785 53.9622 14.074 54.3472 14.354ZM64.0595 5.66H66.9155V17H64.0595V5.66ZM72.9423 17V11.246C72.9423 10.378 73.0666 9.70425 73.3151 9.22475C73.5636 8.74525 73.8646 8.42325 74.2181 8.25875C74.5716 8.09425 74.9513 8.012 75.3573 8.012C76.0923 8.012 76.6401 8.222 77.0006 8.642C77.3611 9.062 77.5833 9.524 77.6673 10.028C77.7513 10.532 77.7933 11.071 77.7933 11.645V17H80.6913V10.637C80.6913 9.965 80.6126 9.251 80.4551 8.495C80.2976 7.739 79.8916 7.0215 79.2371 6.3425C78.5826 5.6635 77.5903 5.324 76.2603 5.324C75.1893 5.324 74.2811 5.56025 73.5356 6.03275C73.2042 6.24275 72.9099 6.48317 72.6525 6.75401L72.585 6.83L72.5853 5.66H70.0443V17H72.9423ZM93.4013 8.55275C93.7968 9.57825 93.9385 10.77 93.8265 12.128H92.451H85.864L85.871 12.1802C85.9207 12.5319 86.0035 12.8488 86.1195 13.1308C86.3225 13.6243 86.627 14.0005 87.033 14.2595C87.439 14.5185 87.936 14.648 88.524 14.648C89.077 14.648 89.5548 14.5255 89.9573 14.2805C90.3598 14.0355 90.666 13.682 90.876 13.22L93.732 14.039C93.452 14.718 93.0565 15.3043 92.5455 15.7978C92.0345 16.2913 91.4465 16.6675 90.7815 16.9265C90.1165 17.1855 89.42 17.315 88.692 17.315C87.544 17.315 86.5238 17.0665 85.6313 16.5695C84.7388 16.0725 84.0423 15.3795 83.5418 14.4905C83.0413 13.6015 82.791 12.597 82.791 11.477C82.791 10.259 83.0343 9.18625 83.5208 8.25875C84.0073 7.33125 84.6845 6.61375 85.5525 6.10625C86.4205 5.59875 87.411 5.345 88.524 5.345C89.7 5.345 90.708 5.62325 91.548 6.17975C92.388 6.73625 93.0058 7.52725 93.4013 8.55275ZM90.938 10.007H85.937L85.9863 9.80028C86.0054 9.72744 86.026 9.65662 86.0482 9.58782L86.1195 9.3875C86.3225 8.8695 86.634 8.47925 87.054 8.21675C87.474 7.95425 88.006 7.823 88.65 7.823C89.21 7.823 89.6615 7.935 90.0045 8.159C90.3475 8.383 90.5995 8.73125 90.7605 9.20375C90.8209 9.38094 90.87 9.57954 90.9077 9.79954L90.938 10.007ZM102.993 17C101.691 17.245 100.529 17.266 99.5068 17.063C98.4848 16.86 97.7568 16.37 97.3228 15.593C97.1058 15.194 96.971 14.788 96.9185 14.375L96.898 14.1901C96.8612 13.8044 96.8488 13.3235 96.8608 12.7475L96.86 7.865H94.9288V5.66H96.86L96.8608 2.51H99.7168L99.716 5.66H102.993V7.865H99.716L99.7168 12.338C99.7098 12.793 99.7185 13.1518 99.743 13.4143C99.7675 13.6768 99.8358 13.892 99.9478 14.06C100.179 14.424 100.546 14.6375 101.05 14.7005C101.554 14.7635 102.202 14.739 102.993 14.627V17Z" fill="#328EFF"/>
<path fill-rule="evenodd" clip-rule="evenodd" d="M9.6532 0.264658C9.94062 0.100634 10.2933 0.100634 10.5807 0.264658L18.4066 4.73069C18.6984 4.89721 18.8785 5.20738 18.8785 5.54335V14.4567C18.8785 14.7926 18.6984 15.1028 18.4066 15.2693L10.5807 19.7353C10.2933 19.8994 9.94062 19.8994 9.6532 19.7353L1.82733 15.2693C1.53553 15.1028 1.35542 14.7926 1.35542 14.4567V5.54335C1.35542 5.20739 1.53553 4.89721 1.82733 4.73069L9.6532 0.264658Z" fill="#87CD44"/>
<path fill-rule="evenodd" clip-rule="evenodd" d="M9.68282 1.14135C9.97004 0.977616 10.3224 0.977616 10.6096 1.14135L17.7011 5.18398C17.9931 5.35044 18.1734 5.66074 18.1734 5.99685V14.0616C18.1734 14.3977 17.9931 14.708 17.7011 14.8745L10.6096 18.9171C10.3224 19.0809 9.97004 19.0809 9.68282 18.9171L2.59129 14.8745C2.29929 14.708 2.11901 14.3977 2.11901 14.0616V5.99685C2.11901 5.66074 2.29929 5.35044 2.59129 5.18398L9.68282 1.14135Z" fill="black"/>
<path fill-rule="evenodd" clip-rule="evenodd" d="M8.35965 16.7919C8.32918 16.8698 8.36076 16.9582 8.43365 16.9991L9.9359 17.8423C9.9971 17.8767 10.0661 17.8947 10.1363 17.8947H10.1834C10.2561 17.8947 10.3275 17.8754 10.3903 17.8386L16.9321 14.0061C17.0575 13.9327 17.1345 13.7982 17.1345 13.6529V11.7942C17.1345 11.6493 17.0579 11.5152 16.9331 11.4416L12.6721 8.92879C12.5473 8.85518 12.4707 8.72108 12.4707 8.57618V5.73063C12.4707 5.68348 12.4962 5.64001 12.5373 5.61699C12.578 5.5942 12.6278 5.59493 12.6678 5.61889L14.9881 7.00832C15.1116 7.08226 15.1872 7.21561 15.1872 7.35952V8.24394C15.1872 8.37967 15.2544 8.50658 15.3668 8.58276L16.686 9.47724C16.7824 9.54263 16.9088 9.54329 17.0059 9.47892C17.0862 9.4257 17.1345 9.33578 17.1345 9.23946V6.21573C17.1345 6.07199 17.0591 5.93877 16.9359 5.86478L10.7836 2.17087C10.7169 2.13083 10.6331 2.13295 10.5685 2.1763C10.513 2.21357 10.4797 2.27603 10.4797 2.34289V9.5086C10.4797 9.55931 10.4891 9.60958 10.5075 9.65686L10.5464 9.75689C10.5794 9.84184 10.6398 9.91334 10.718 9.96007L14.9407 12.4823C15.0147 12.5265 15.06 12.6064 15.06 12.6926C15.06 12.7797 15.0138 12.8602 14.9387 12.9042L8.4311 16.7084C8.39856 16.7274 8.37339 16.7568 8.35965 16.7919Z" fill="white"/>
<path fill-rule="evenodd" clip-rule="evenodd" d="M9.47583 7.93272C9.57595 7.93272 9.65711 8.01388 9.65711 8.114V9.98777C9.65711 10.0534 9.67291 10.1181 9.70317 10.1764L9.76093 10.2876C9.79663 10.3564 9.85111 10.4136 9.91803 10.4526L13.3977 12.4814C13.4721 12.5248 13.5178 12.6044 13.5178 12.6906C13.5178 12.777 13.4717 12.8569 13.3969 12.9001L7.60127 16.2508C7.53899 16.2868 7.46832 16.3058 7.39638 16.3058H7.19174C7.12003 16.3058 7.04959 16.2869 6.98745 16.2512L3.26308 14.1064C3.13743 14.0341 3.05943 13.9006 3.05803 13.7556L2.98473 6.15848C2.98332 6.01249 3.05977 5.8768 3.18537 5.80237L9.28956 2.18503C9.37156 2.13644 9.47438 2.14017 9.55264 2.19459C9.61809 2.24009 9.65711 2.31475 9.65711 2.39446V4.13472C9.65711 4.28476 9.57503 4.42278 9.44319 4.49441L5.07226 6.86944C4.99201 6.91304 4.92871 6.98232 4.89251 7.06618C4.87047 7.11724 4.85909 7.17226 4.85909 7.22787V12.3419C4.85909 12.4735 4.92237 12.5971 5.02915 12.674L7.05606 14.1344C7.12575 14.1846 7.20947 14.2117 7.29536 14.2117H7.39311C7.46711 14.2117 7.53974 14.1916 7.60325 14.1536L9.69224 12.904C9.76874 12.8582 9.81558 12.7756 9.81558 12.6865C9.81558 12.6021 9.77358 12.5233 9.70355 12.4762L7.84741 11.2282C7.77989 11.1828 7.70037 11.1585 7.619 11.1585H7.61618C7.54414 11.1585 7.47337 11.1776 7.41102 11.2137L6.6274 11.6675C6.57999 11.695 6.52314 11.701 6.47105 11.684C6.39165 11.6582 6.3379 11.5841 6.3379 11.5006V10.0751C6.3379 9.93347 6.41111 9.8019 6.53146 9.72724L9.38027 7.95996C9.40897 7.94215 9.44206 7.93272 9.47583 7.93272Z" fill="white"/>
</svg>
