<svg width="11" height="15" viewBox="0 0 11 15" fill="none" xmlns="http://www.w3.org/2000/svg">
<path fill-rule="evenodd" clip-rule="evenodd" d="M8.12304 2.34375H8.70833C9.97425 2.34375 11 3.39281 11 4.6875V12.6562C11 13.9509 9.97425 15 8.70833 15H2.29167C1.02575 15 0 13.9509 0 12.6562V4.6875C0 3.39281 1.02575 2.34375 2.29167 2.34375H2.87696C2.95717 2.20312 3.07083 2.08687 3.20833 2.00484V0.9375C3.20833 0.42 3.619 0 4.125 0H6.875C7.381 0 7.79167 0.42 7.79167 0.9375V2.00484C7.92917 2.08687 8.04283 2.20312 8.12304 2.34375ZM6.41667 0.9375H4.58333C4.32987 0.9375 4.125 1.14703 4.125 1.40625C4.125 1.66547 4.32987 1.875 4.58333 1.875H6.41667C6.67013 1.875 6.875 1.66547 6.875 1.40625C6.875 1.14703 6.67013 0.9375 6.41667 0.9375ZM10.0833 12.6562C10.0833 13.4316 9.46642 14.0625 8.70833 14.0625H2.29167C1.53358 14.0625 0.916667 13.4316 0.916667 12.6562V4.6875C0.916667 3.91219 1.53358 3.28125 2.29167 3.28125H2.75C2.75 4.05797 3.36554 4.6875 4.125 4.6875H6.875C7.63446 4.6875 8.25 4.05797 8.25 3.28125H8.70833C9.46642 3.28125 10.0833 3.91219 10.0833 4.6875V12.6562ZM2.75 6.5625H8.25C8.50346 6.5625 8.70833 6.77203 8.70833 7.03125C8.70833 7.29047 8.50346 7.5 8.25 7.5H2.75C2.49654 7.5 2.29167 7.29047 2.29167 7.03125C2.29167 6.77203 2.49654 6.5625 2.75 6.5625ZM8.25 8.4375H2.75C2.49654 8.4375 2.29167 8.64703 2.29167 8.90625C2.29167 9.16547 2.49654 9.375 2.75 9.375H8.25C8.50346 9.375 8.70833 9.16547 8.70833 8.90625C8.70833 8.64703 8.50346 8.4375 8.25 8.4375ZM2.75 10.3125H8.25C8.50346 10.3125 8.70833 10.522 8.70833 10.7812C8.70833 11.0405 8.50346 11.25 8.25 11.25H2.75C2.49654 11.25 2.29167 11.0405 2.29167 10.7812C2.29167 10.522 2.49654 10.3125 2.75 10.3125Z" fill="#252525"/>
</svg>
