<svg width="15" height="15" viewBox="0 0 15 15" fill="none" xmlns="http://www.w3.org/2000/svg">
<path fill-rule="evenodd" clip-rule="evenodd" d="M6.875 0C6.53 0 6.25 0.279375 6.25 0.625V1.28188C2.75125 1.59938 0 4.545 0 8.125C0 11.9156 3.08437 15 6.875 15C10.455 15 13.4012 12.2487 13.7181 8.75H14.375C14.72 8.75 15 8.47062 15 8.125C15 3.645 11.355 0 6.875 0ZM7.5 1.27813C10.7937 1.57563 13.4237 4.20625 13.7219 7.5H7.5V1.27813ZM1.25 8.125C1.25 11.2269 3.77375 13.75 6.875 13.75C9.765 13.75 12.1506 11.5581 12.4631 8.75H6.875C6.53 8.75 6.25 8.47062 6.25 8.125V2.53688C3.44187 2.84938 1.25 5.23438 1.25 8.125Z" fill="black"/>
</svg>
