<svg width="16" height="15" viewBox="0 0 16 15" fill="none" xmlns="http://www.w3.org/2000/svg">
<path fill-rule="evenodd" clip-rule="evenodd" d="M11.0185 4.06916L14.6494 4.57256C15.2509 4.65646 15.7451 5.05499 15.9169 5.60034C16.1103 6.16666 15.9599 6.75397 15.5302 7.17347L12.9091 9.6695L13.5322 13.1933C13.6396 13.7596 13.4033 14.3469 12.9091 14.6825C12.6298 14.8713 12.3076 14.9762 11.9853 14.9762C11.7275 14.9762 11.4912 14.9342 11.2549 14.8084L8.01074 13.1514L4.74514 14.8294C4.20804 15.102 3.58499 15.0391 3.09086 14.7035C2.59672 14.3679 2.36039 13.8016 2.46781 13.2143L3.09086 9.69047L0.469783 7.19444C0.0400982 6.77494 -0.110291 6.18764 0.0830667 5.62131C0.276425 5.05499 0.749077 4.65646 1.35064 4.57256L4.98147 4.06916L6.59278 0.859977C6.87208 0.335601 7.40918 0 8.01074 0C8.6123 0 9.14941 0.314626 9.40722 0.859977L11.0185 4.06916ZM11.2119 9.87925C11.126 9.37585 11.2978 8.87245 11.6631 8.51587L14.1123 6.16666L10.7178 5.68424C10.2021 5.62131 9.77245 5.30669 9.53612 4.84524L8.01074 1.8458L6.48536 4.86621C6.24904 5.32766 5.81935 5.64229 5.30373 5.70521L1.90922 6.18764L4.35843 8.51587C4.72366 8.87245 4.89553 9.37585 4.80959 9.87925L4.22952 13.1933L7.28028 11.6412C7.5166 11.5363 7.75293 11.4734 8.01074 11.4734C8.26855 11.4734 8.50488 11.5153 8.74121 11.6412L11.792 13.1933L11.2119 9.87925Z" fill="#252525"/>
</svg>
